<?xml version="1.0" encoding="UTF-8"?>
<svg id="Layer_2" data-name="Layer 2" xmlns="http://www.w3.org/2000/svg" viewBox="0 0 68.97 68.97">
  <defs>
    <style>
      .cls-1 {
        fill: #e5c468;
      }

      .cls-2 {
        fill: #e3c05d;
      }

      .cls-3 {
        fill: #b29044;
      }

      .cls-4 {
        fill: #fffffe;
      }

      .cls-5 {
        fill: #b19047;
      }
    </style>
  </defs>
  <g id="Layer_1-2" data-name="Layer 1">
    <g>
      <path class="cls-4" d="M68.97,0v68.97H0V0h68.97ZM41.81,39.93c4.77,3.34,9.78,7.13,14.85,9.95,1.01.56,3.49,1.99,4.55,1.97,3.37-.04,6.11-7.03,6.77-9.74,2.41-9.77-.88-15.88-6.3-23.6-3.36-4.78-11.33-14.63-16.68-16.79-4.66-1.88-9.77-.53-13.7,2.32-.8.58-2.29,2.27-3.06,2.55-.66.24-3.03.18-3.36.67-2.13.27-4.38,1.23-6.25,2.28-4.72,2.67-6.25,5.51-8.54,10.22-1.83,3.78-3.35,7.03-3.63,11.36-.76,11.67,8.61,24.09,19.9,26.89,1.82.45,3.86.63,5.51-.34,2.48-1.45,5.47-5.35,6.42-8.03,1.17-3.29,1.11-7.84,1.11-11.33.88.42,1.62,1.05,2.42,1.61Z"/>
      <path class="cls-2" d="M28.23,6.59c.77-.28,2.26-1.97,3.06-2.55,3.93-2.85,9.05-4.19,13.7-2.32,5.35,2.16,13.32,12.01,16.68,16.79,5.42,7.72,8.72,13.83,6.3,23.6-.67,2.71-3.4,9.7-6.77,9.74-1.06.01-3.54-1.41-4.55-1.97-5.08-2.82-10.08-6.61-14.85-9.95.33-.38.02-.96,0-1.41-.36-7.58-1.27-20.29,1.21-27.3.3-.85,1.68-2.92.4-3.49-1.52-.69-2.16,1.36-2.56,2.41-2.94,7.87-1.48,19.73-1.48,28.17,0,3.49.06,8.04-1.11,11.33-.95,2.68-3.94,6.58-6.42,8.03-1.81-1.25-3.77-2.37-5.38-3.9-.22-.21-.55-.5-.73-.68-.47-.48-.79-1.42-1.69-1.34-.29-.29-.52-.46-.81-.81-.77-.91-1.38-1.62-2.06-2.65-.26-.39-.83-.68-1.3-.71-.34-.37-.73-.7-1.08-1.08l-1.38-2.12c-.8.04-.49-.47-.77-.78-.12-.13-.73-.39-.94-.47-.14-.17-.26-.37-.4-.54-.05-.6-.2-1.38-.94-1.34-4.35-6.38-6.42-13.85-4.3-21.51,2.29-4.71,3.82-7.55,8.54-10.22,1.87-1.06,4.13-2.02,6.25-2.28-.04.07-.05.29-.15.44-1.51,2.26-2.45,4.35-4.55,6.21-.75.67-2.41,1.25-1.73,2.54.75,1.43,2.35.06,3.14-.59,1.31-1.07,2.44-2.49,3.35-3.91l3.3-5.37ZM63.27,44.32c1.27-1.42,1.96-4.47,2.06-6.34.05-.95.26-2.74-1.04-2.86-1.73-.16-1.27,2.13-1.38,3.13-.15,1.37-.72,4.48-2.18,5.08-.86.35-2.4-.32-2.49,1.28-.07,1.22,1.26,1.33,2.18,1.24s2.23-.84,2.85-1.52Z"/>
      <path class="cls-5" d="M14.39,41.27c.34.5.53.83.94,1.34.14.17.26.37.4.54.97,1.16,2.07,2.25,3.09,3.36.35.38.73.71,1.08,1.08.77.82,1.5,1.74,2.35,2.56.27.26.67.68,1.01.8.29.34.52.52.81.81.74.74,1.52,1.47,2.42,2.02,1.6,1.53,3.57,2.64,5.38,3.9-1.65.96-3.7.79-5.51.34-11.28-2.8-20.65-15.21-19.9-26.89.28-4.33,1.8-7.58,3.63-11.36-2.12,7.66-.05,15.13,4.3,21.51Z"/>
      <path class="cls-3" d="M41.81,39.93c-.8-.56-1.54-1.19-2.42-1.61,0-8.44-1.46-20.3,1.48-28.17.39-1.05,1.03-3.1,2.56-2.41,1.28.57-.1,2.64-.4,3.49-2.48,7.01-1.57,19.72-1.21,27.3.02.45.34,1.02,0,1.41Z"/>
      <path class="cls-3" d="M28.23,6.59l-3.3,5.37c-.92,1.42-2.04,2.83-3.35,3.91-.79.65-2.39,2.02-3.14.59-.68-1.29.98-1.87,1.73-2.54,2.1-1.86,3.03-3.95,4.55-6.21.11-.16.11-.38.15-.44.33-.49,2.7-.44,3.36-.67Z"/>
      <path class="cls-3" d="M63.27,44.32c-.61.68-1.92,1.43-2.85,1.52s-2.25-.02-2.18-1.24c.09-1.6,1.63-.93,2.49-1.28,1.46-.59,2.03-3.71,2.18-5.08.11-1-.35-3.29,1.38-3.13,1.3.12,1.09,1.91,1.04,2.86-.1,1.87-.79,4.92-2.06,6.34Z"/>
      <path class="cls-1" d="M19.9,47.59c.47.03,1.04.32,1.3.71.67,1.02,1.29,1.74,2.06,2.65-.34-.12-.74-.54-1.01-.8-.85-.82-1.58-1.74-2.35-2.56Z"/>
      <path class="cls-1" d="M24.06,51.76c.9-.08,1.22.86,1.69,1.34.18.19.51.47.73.68-.9-.54-1.68-1.27-2.42-2.02Z"/>
      <path class="cls-1" d="M15.73,43.16c.21.08.83.34.94.47.28.31-.03.81.77.78l1.38,2.12c-1.02-1.11-2.13-2.2-3.09-3.36Z"/>
      <path class="cls-1" d="M15.33,42.62c-.41-.51-.6-.84-.94-1.34.74-.03.89.75.94,1.34Z"/>
    </g>
  </g>
</svg>