<?xml version="1.0" encoding="UTF-8"?>
<svg id="Layer_2" data-name="Layer 2" xmlns="http://www.w3.org/2000/svg" viewBox="0 0 88.42 73.36">
  <defs>
    <style>
      .cls-1 {
        fill: #97332b;
      }

      .cls-2 {
        fill: #fbf8f6;
      }

      .cls-3 {
        fill: #fcf9f7;
      }

      .cls-4 {
        fill: #fdfcfb;
      }

      .cls-5 {
        fill: #fdfaf9;
      }

      .cls-6 {
        fill: #fffefe;
      }

      .cls-7 {
        fill: #97322b;
      }
    </style>
  </defs>
  <g id="Layer_1-2" data-name="Layer 1">
    <g>
      <path class="cls-6" d="M88.42,0v73.36H0V0h88.42ZM44.73,3.61V.83c-.3-.13-.78-.2-1.13-.22-.92-.06-1.87,0-2.77.14l-1.79,4.03-1.3-.93c-2.32-1.07-5.14-.09-5.71,2.52-.91.06-.93-.55-.68-1.24s.93-.95-.08-1.36c-.79-.32-1.92-.08-2.77-.14-.67.95-.8,2.27-.47,3.39.11.35.46.84.49,1.1.08.71,0,1.82,0,2.57-.01,1.05-.22,2.65-.05,3.65.12.68.97,1.1,1.58,1.24,1.35.32,2.99.13,4.19-.58l.09-5.35c0-.06-.82-.1-.95-.4-.09-.21-.06-.65.2-.72.21-.06,1.19.21,1.52.23.96.07,2.04-.02,2.93-.37l.17-1.33c.4-.32.96-.24,1.03.32.23,1.94-.52,5.19.52,6.82s3.65,1.83,5.32,1.23c1.8-.65,2.12-2.24,1.74-3.97-.62.06-1.37-.07-1.66-.7-.04-.09-.17-.49-.17-.56v-2.26l.09-.09h2.6c-.59-1.34-.53-2.91.12-4.22h-3.06ZM13.27,8.45c-.97-.02-1.93.01-2.9-.07-.59-.05-1.79-.19-2.32-.37-.34-.12-.44-.9-.22-1.19.7-.9,4.17-.5,5.48-1.5,1.09-.83.65-2.83.08-3.88-.35-.64-.56-.55-1.25-.53-1.44.05-2.95.32-4.4.37-1.89.06-3.93-.4-5.8.2-.88.28-.84.52-.96,1.37-.59,4.17.43,9.23.85,13.45.09.88,0,2.31.36,3.07s1.53,1.41,2.38,1.14c1.18-.38,3.05-1.5,3.9-2.4.12-.12.46-.51.46-.64l-.5-2.66c-.53-.17-1.61.18-1.53-.71.06-.61.5-.59.97-.68,1.82-.37,3.68-.52,5.52-.72.1-.06.37-.84.37-.98,0-.27-.16-.73-.18-1.04-.06-.78.14-1.5-.32-2.22ZM20.18,3.2c-4.51.27-6.92,3.99-5.96,8.31,1.29,5.85,10.75,6,12.53.39,1.5-4.75-1.5-9-6.56-8.7ZM79.69,11.09c.21-.19.7.19.95.27,2.39.87,6.32.18,6.57-2.89.38-4.81-5.83-6.4-9.3-4.22-3.92,2.46-3.7,9.09.73,10.88,2.04.82,5.34.73,7.26-.39.13-.08.62-.38.69-.47.27-.34.07-2.09-.28-2.47-1.66.83-3.6,1.1-5.41.64-.4-.1-1.25-.36-1.33-.81-.03-.15,0-.44.12-.55ZM68.58,3.38c-1.13.11-2.07.63-2.83,1.45-.28.3-.29.68-.84.41s-.18-.95.08-1.3c-.24-.21-.57-.32-.88-.34-.38-.03-1.63-.06-1.96,0-.27.05-.57,1.06-.63,1.33-.14.76-.1,1.52.17,2.25.09.25.41.69.43.85.09.69-.06,1.46-.07,2.14-.01.86-.13,3.33.11,3.99.68,1.8,3.96,1.73,5.27.72.44-.34.12-.5-.01-.96-.42-1.51-.06-2.47.02-3.93.03-.61-.12-1.29-.13-1.9.07-.36,1.13-.49,1.27.32.29,1.75-.77,3.55-.01,5.46.93,2.34,4.91,2.26,5.75-.12.1-.29.27-1.1.21-1.37-.03-.16-.44-.48-.56-.72-.54-1.09-.13-3.36-.23-4.66-.23-2.76-2.62-3.88-5.15-3.62ZM55.43,14.14c.72,1.9,3.82,1.98,4.93.41.35-.49.63-1.58.52-2.17-.02-.13-.4-.47-.52-.71-.54-1.1-.24-4.26-.21-5.59.01-.62.01-1.25-.03-1.87-1.24-.97-3.34-.96-4.76-.41-.21.08-.61.19-.6.44.11,1.88-.16,3.82-.06,5.7.02.29.09.56.13.84-.7.52-1.14.1-1.22-.67-.15-1.47.47-4.5-.37-5.62-.96-1.28-3.5-.82-4.9-.86-.74,1.25-.76,2.58-.25,3.93.16.43.18.22.19.72.04,2.24-.43,4.91,1.53,6.49,1.2.97,3.57,1.24,4.89.42-.3-.64,0-1.19.73-1.05ZM58.62,25.82c3.79-.72,2.91-5.91-1-5.5-2.65.28-3.63,3.99-.96,5.01l-1.23.59c.12,2.3-.19,4.68-.06,6.97.08,1.37.56,2.59,1.94,3.07,1.96.69,4.09-.23,4.18-2.46.03-.76-.28-.61-.55-1.17-.14-.31-.19-.64-.25-.97v-4.76c-.31-.48-.74,0-1.15.07-.69.11-.97-.15-.93-.84ZM49.39,24.42c-.36,1.31-.85,2.62-1.78,3.64-.34.37-.79.99-1.19.33-.37-.6.7-1.27.93-1.69.43-.81.59-2.99.5-3.9-.08-.79-.57-1.25-1.29-1.53-1.34-.52-3.01-.25-4.27.35-.05,3.68.03,7.36,0,11.04-.01,1.09-.34,2.08.64,2.9,1.3,1.08,3.57.77,4.86-.19-.47-.99-.94-2.01-.86-3.14l.89-.4c.13-.02.07.02.09.09.35,1.81.71,3.86,2.92,4.24,2.59.44,4.27-1.45,3.42-3.97-.07-.22-.19-.6-.41-.69-.42-.17-1.1-.23-1.61-.41-.17-.06-1.25-.56-1.27-.63-.03-.12.05-.09.12-.12.28-.13.61-.2.9-.33,3.32-1.51,3.04-5.68-.93-5.76-.56-.01-1.12.17-1.68.19ZM8.44,26.56c.08.59-.32,1.36.2,1.79,1.7,1.39,5.68,1.1,5.87-1.65.22-3.17-3.54-4.61-6.15-4.68-5.62-.15-9.1,4.35-7.51,9.77s9.57,6.08,13.11,2.55c.58-.58.61-.71.47-1.51-.09-.51-.76-2.64-1.25-2.79-1.56.01-3.25.28-4.64,1.03-.11.46.16,1.22-.55,1.17-.36-.03-.47-.38-.55-.68-.26-.96-.2-2.28-.15-3.27.04-.83-.16-2.11,1.15-1.74ZM20.79,24.25c-7.45.59-7.67,11.74.1,12.22,3.44.21,6.35-1.47,6.81-5.05.58-4.49-2.46-7.51-6.92-7.16ZM34.38,24.25c-7.26.52-7.62,10.79-1.04,12.02,3.38.63,6.85-.65,7.63-4.26.97-4.51-1.94-8.09-6.59-7.75ZM66.53,31.83c.06-.06.16-.08.25-.07.21.03.73.35,1.04.43,2.3.63,5.85-.02,6.05-2.92.32-4.7-5.87-6.15-9.2-4s-3.46,8.04.2,10.12c2.07,1.17,5.74,1.16,7.79-.04.12-.07.59-.37.65-.45.28-.35.05-1.97-.28-2.35-.92.38-1.85.73-2.86.79-.85.05-2.86-.07-3.52-.65-.23-.2-.35-.64-.11-.87ZM75.8,31.76c-.61.06-1.13.89-1.34,1.43-1.06,2.75-.02,4.93,2.51,6.24,3.58,1.86,5.07.12,6.88-2.79,1.01-1.61,2.31-3.88,2.18-5.84-.05-.81-.31-.99-.94-1.38-1.06-.66-1.92-.72-3.13-.85-.34-.04-.79.13-1-.23-.05-.17.08-.52.2-.63.36-.33,2.15-.13,2.68-.04.7.11,1.38.35,2.07.51.52-.64,1.21-2.47.42-3.06-.64-.47-3.6-.8-4.49-.83-2.07-.08-5.22.34-6.08,2.56-1.08,2.8.78,5.36,3.69,5.52.36.02.84-.26.75.38-.09.68-.62.89-1.24.84-1.19-.1-2.45-.89-3.16-1.82ZM17.15,50.15s-.12-.22-.12-.27c-.1-.55.41-.75.87-.75.41,0,.95.23,1.29.24.4.01,1.17-.99,1.32-1.36.73-1.78-.34-3.54-1.77-4.56-3.07-2.18-8.25-2.4-11.84-1.71-2.11.41-5.61,1.72-5.79,4.24s3.32,3.11,5.15,3.02c.63-1.43,2.1-2.26,3.59-2.54.59-.11,2.63-.43,2.69.5,0,.11-.08.37-.18.43-.21.1-1.28,0-1.62.03-1.77.14-3.74,1.36-3.09,3.4.57,1.78,3,2.02,4.56,1.99.29,0,.57-.22.75.17.31.69-.46.89-.99.93-2.35.18-5.13-.75-5.8-3.23-.27-.15-.51-.02-.75-.01-.55.02-.96.04-1.5.15-3.48.75-4.06,4.08-1.24,6.14,3.85,2.8,14,2.84,17.45-.64,2.17-2.18,1.3-5.37-1.77-5.99-.25-.05-1.12-.08-1.21-.17ZM32.3,41.44c-4.47.23-8.97,2.59-9.59,7.42-.7,5.5,2.45,9.16,7.8,9.92,6.73.96,13.49-1.58,12.93-9.44-.41-5.68-6.06-8.17-11.15-7.91ZM54.26,41.44c-4.47.23-8.97,2.59-9.59,7.42-.7,5.5,2.45,9.16,7.8,9.92,6.73.96,13.49-1.58,12.93-9.44-.41-5.68-6.06-8.17-11.15-7.91ZM76.23,41.44c-4.47.23-8.97,2.59-9.59,7.42-.7,5.5,2.45,9.16,7.8,9.92,6.73.96,13.49-1.58,12.93-9.44-.41-5.68-6.06-8.17-11.15-7.91Z"/>
      <path class="cls-7" d="M32.3,41.44c5.08-.27,10.74,2.23,11.15,7.91.56,7.86-6.2,10.4-12.93,9.44-5.35-.76-8.51-4.42-7.8-9.92.62-4.84,5.11-7.19,9.59-7.42ZM30.89,47.24c-.12-.08-.61.03-.75.12-.52.36-.14,1.12.1,1.54.75,1.33,4.18,4.79,5.66,5.04.58.1,1.12-.03,1.11-.71-2.34-1.28-4.46-3.26-5.89-5.52-.06-.1-.21-.46-.23-.47Z"/>
      <path class="cls-7" d="M76.23,41.44c5.08-.27,10.74,2.23,11.15,7.91.56,7.86-6.2,10.4-12.93,9.44-5.35-.76-8.51-4.42-7.8-9.92.62-4.84,5.11-7.19,9.59-7.42ZM74.83,47.24c-.12-.08-.61.03-.75.12-.52.36-.14,1.12.1,1.54.75,1.33,4.18,4.79,5.66,5.04.58.1,1.12-.03,1.11-.71-2.34-1.28-4.46-3.26-5.89-5.52-.06-.1-.21-.46-.23-.47Z"/>
      <path class="cls-7" d="M54.26,41.44c5.08-.27,10.74,2.23,11.15,7.91.56,7.86-6.2,10.4-12.93,9.44-5.35-.76-8.51-4.42-7.8-9.92.62-4.84,5.11-7.19,9.59-7.42ZM52.86,47.24c-.12-.08-.61.03-.75.12-.52.36-.14,1.12.1,1.54.75,1.33,4.18,4.79,5.66,5.04.58.1,1.12-.03,1.11-.71-2.34-1.27-4.38-3.22-5.84-5.44-.07-.11-.25-.53-.28-.55Z"/>
      <path class="cls-1" d="M17.15,50.15c.09.08.96.12,1.21.17,3.06.62,3.93,3.81,1.77,5.99-3.46,3.48-13.6,3.44-17.45.64-2.82-2.06-2.23-5.39,1.24-6.14.54-.12.95-.13,1.5-.15.25-.01.48-.13.75.01.67,2.48,3.45,3.42,5.8,3.23.53-.04,1.3-.25.99-.93-.18-.39-.45-.17-.75-.17-1.56.03-4-.21-4.56-1.99-.65-2.04,1.33-3.26,3.09-3.4.34-.03,1.42.07,1.62-.03.1-.05.19-.31.18-.43-.06-.93-2.1-.61-2.69-.5-1.49.29-2.96,1.11-3.59,2.54-1.83.09-5.33-.59-5.15-3.02s3.69-3.83,5.79-4.24c3.59-.7,8.78-.48,11.84,1.71,1.43,1.02,2.5,2.78,1.77,4.56-.15.37-.92,1.37-1.32,1.36-.35-.01-.88-.24-1.29-.24-.47,0-.97.2-.87.75,0,.05.09.24.12.27Z"/>
      <path class="cls-1" d="M44.73,3.61h3.06c-.65,1.31-.71,2.88-.12,4.22h-2.6l-.09.09v2.26c0,.07.13.47.17.56.29.63,1.04.76,1.66.7.38,1.74.06,3.32-1.74,3.97-1.67.6-4.27.39-5.32-1.23s-.3-4.88-.52-6.82c-.07-.56-.62-.64-1.03-.32l-.17,1.33c-.9.35-1.97.44-2.93.37-.33-.02-1.31-.29-1.52-.23-.26.08-.29.51-.2.72.14.3.94.34.95.4l-.09,5.35c-1.2.71-2.84.9-4.19.58-.61-.14-1.46-.56-1.58-1.24-.17-1,.04-2.6.05-3.65,0-.75.08-1.86,0-2.57-.03-.26-.39-.75-.49-1.1-.33-1.11-.2-2.44.47-3.39.85.06,1.98-.18,2.77.14,1,.41.32.68.08,1.36s-.22,1.3.68,1.24c.57-2.62,3.39-3.6,5.71-2.52l1.3.93,1.79-4.03c.9-.14,1.86-.19,2.77-.14.34.02.83.08,1.13.22v2.78Z"/>
      <path class="cls-1" d="M13.27,8.45c.45.72.26,1.44.32,2.22.02.31.19.77.18,1.04,0,.14-.27.92-.37.98-1.84.2-3.7.35-5.52.72-.47.1-.91.08-.97.68-.08.89.99.54,1.53.71l.5,2.66c0,.13-.34.52-.46.64-.85.9-2.72,2.03-3.9,2.4-.85.27-2.01-.34-2.38-1.14s-.27-2.19-.36-3.07C1.42,12.09.4,7.03.99,2.85c.12-.85.08-1.09.96-1.37,1.86-.6,3.91-.13,5.8-.2,1.45-.05,2.96-.32,4.4-.37.69-.02.9-.11,1.25.53.57,1.05,1,3.05-.08,3.88-1.31,1-4.77.6-5.48,1.5-.22.29-.12,1.07.22,1.19.53.18,1.73.32,2.32.37.96.08,1.93.05,2.9.07Z"/>
      <path class="cls-1" d="M8.44,26.56c-1.31-.37-1.11.91-1.15,1.74-.05.99-.11,2.31.15,3.27.08.3.19.65.55.68.71.05.44-.71.55-1.17,1.38-.75,3.08-1.01,4.64-1.03.49.14,1.16,2.28,1.25,2.79.14.81.11.94-.47,1.51-3.55,3.52-11.54,2.79-13.11-2.55s1.9-9.93,7.51-9.77c2.61.07,6.37,1.5,6.15,4.68-.19,2.75-4.17,3.04-5.87,1.65-.52-.43-.12-1.2-.2-1.79Z"/>
      <path class="cls-1" d="M49.39,24.42c.56-.02,1.12-.2,1.68-.19,3.97.08,4.25,4.25.93,5.76-.29.13-.62.2-.9.33-.07.03-.15,0-.12.12.02.07,1.1.57,1.27.63.5.18,1.19.24,1.61.41.22.09.33.47.41.69.85,2.52-.84,4.41-3.42,3.97-2.22-.37-2.58-2.43-2.92-4.24-.01-.08.05-.11-.09-.09l-.89.4c-.09,1.13.38,2.15.86,3.14-1.29.96-3.56,1.27-4.86.19-.98-.82-.65-1.81-.64-2.9.04-3.68-.04-7.36,0-11.04,1.27-.6,2.94-.86,4.27-.35.71.28,1.21.74,1.29,1.53.09.91-.07,3.09-.5,3.9-.23.42-1.3,1.09-.93,1.69.4.66.85.04,1.19-.33.92-1.02,1.42-2.32,1.78-3.64Z"/>
      <path class="cls-1" d="M75.8,31.76c.71.93,1.97,1.73,3.16,1.82.62.05,1.15-.16,1.24-.84.09-.64-.4-.36-.75-.38-2.91-.17-4.77-2.72-3.69-5.52.85-2.22,4.01-2.64,6.08-2.56.89.04,3.85.36,4.49.83.78.58.1,2.42-.42,3.06-.69-.16-1.36-.39-2.07-.51-.53-.08-2.31-.29-2.68.04-.13.12-.25.46-.2.63.21.35.66.19,1,.23,1.21.13,2.08.18,3.13.85.63.4.89.58.94,1.38.13,1.96-1.17,4.23-2.18,5.84-1.81,2.91-3.3,4.65-6.88,2.79-2.52-1.31-3.57-3.49-2.51-6.24.21-.54.73-1.36,1.34-1.43Z"/>
      <path class="cls-1" d="M20.18,3.2c5.06-.3,8.06,3.96,6.56,8.7-1.78,5.61-11.24,5.46-12.53-.39-.95-4.32,1.45-8.04,5.96-8.31ZM20.02,7.48l.1,4.18c.46.31.96.13,1.04-.44.09-.64.08-2.52,0-3.17-.08-.69-.53-.99-1.14-.58Z"/>
      <path class="cls-1" d="M55.43,14.14c-.73-.13-1.03.42-.73,1.05-1.32.81-3.68.55-4.89-.42-1.96-1.58-1.49-4.25-1.53-6.49,0-.5-.03-.29-.19-.72-.51-1.34-.48-2.67.25-3.93,1.4.04,3.93-.42,4.9.86.84,1.12.22,4.15.37,5.62.08.77.52,1.19,1.22.67-.04-.28-.11-.56-.13-.84-.1-1.87.17-3.81.06-5.7,0-.25.39-.36.6-.44,1.42-.54,3.52-.56,4.76.41.04.62.04,1.25.03,1.87-.02,1.34-.32,4.49.21,5.59.11.23.49.58.52.71.11.58-.18,1.68-.52,2.17-1.11,1.56-4.21,1.49-4.93-.41Z"/>
      <path class="cls-1" d="M68.58,3.38c2.53-.26,4.93.86,5.15,3.62.11,1.3-.3,3.57.23,4.66.12.25.53.57.56.72.05.28-.11,1.09-.21,1.37-.84,2.38-4.82,2.46-5.75.12-.75-1.91.31-3.71.01-5.46-.14-.81-1.2-.68-1.27-.32,0,.61.16,1.29.13,1.9-.08,1.45-.44,2.41-.02,3.93.13.46.45.61.01.96-1.31,1.02-4.59,1.08-5.27-.72-.25-.66-.13-3.14-.11-3.99,0-.69.16-1.45.07-2.14-.02-.17-.34-.6-.43-.85-.27-.73-.31-1.49-.17-2.25.05-.28.36-1.28.63-1.33.33-.06,1.58-.03,1.96,0,.32.03.64.13.88.34-.25.34-.63,1.03-.08,1.3s.56-.11.84-.41c.76-.82,1.71-1.34,2.83-1.45Z"/>
      <path class="cls-1" d="M20.79,24.25c4.46-.35,7.5,2.68,6.92,7.16-.46,3.59-3.38,5.27-6.81,5.05-7.78-.48-7.56-11.63-.1-12.22ZM21.22,28.16c-.5.11-.23.82-.22,1.18.02.85-.11,2.03,0,2.82.06.42.71.42.95.15.07-.08.14-.29.15-.4.07-.54.06-2.86-.1-3.32-.13-.38-.36-.52-.77-.43Z"/>
      <path class="cls-1" d="M34.38,24.25c4.65-.33,7.56,3.24,6.59,7.75-.78,3.62-4.25,4.89-7.63,4.26-6.58-1.23-6.22-11.49,1.04-12.02ZM35.29,28.28c-.23-.26-.75-.17-.96.09l.18,3.97c.51.23.96.09,1.04-.5s.06-2.59-.08-3.15c-.03-.1-.11-.34-.18-.41Z"/>
      <path class="cls-1" d="M79.69,11.09c-.12.11-.15.39-.12.55.08.45.93.71,1.33.81,1.81.46,3.75.19,5.41-.64.35.38.55,2.13.28,2.47-.07.09-.56.39-.69.47-1.92,1.12-5.22,1.21-7.26.39-4.43-1.79-4.65-8.42-.73-10.88,3.47-2.18,9.68-.59,9.3,4.22-.24,3.07-4.18,3.76-6.57,2.89-.24-.09-.74-.46-.95-.27ZM81.49,7.29c-.4.06-.71.36-.77.77s.42.52.76.56c1.42.14,1.31-1.53,0-1.33Z"/>
      <path class="cls-1" d="M66.53,31.83c-.25.23-.12.66.11.87.66.57,2.66.7,3.52.65,1.01-.06,1.94-.41,2.86-.79.34.38.57,2,.28,2.35-.06.08-.53.38-.65.45-2.05,1.21-5.72,1.22-7.79.04-3.66-2.07-3.68-7.86-.2-10.12s9.52-.7,9.2,4c-.2,2.9-3.74,3.55-6.05,2.92-.3-.08-.83-.4-1.04-.43-.08-.01-.18.01-.25.07ZM67.5,29.18c.4.26,1.5.45,1.72-.07.43-1.01-1.28-1.38-1.65-.37-.03.09-.11.37-.07.44Z"/>
      <path class="cls-1" d="M58.62,25.82c-.03.69.24.95.93.84.41-.06.83-.55,1.13-.07v4.76c.08.33.12.67.26.97.26.57.58.41.55,1.17-.09,2.23-2.22,3.15-4.18,2.46-1.39-.49-1.87-1.7-1.94-3.07-.13-2.29.18-4.67.06-6.97l1.23-.59c-2.67-1.02-1.69-4.73.96-5.01,3.92-.41,4.79,4.78,1,5.5Z"/>
      <path class="cls-5" d="M30.89,47.24s.17.38.23.47c1.43,2.25,3.56,4.24,5.89,5.52,0,.68-.53.81-1.11.71-1.48-.25-4.91-3.72-5.66-5.04-.24-.42-.62-1.18-.1-1.54.13-.09.62-.2.75-.12Z"/>
      <path class="cls-5" d="M74.83,47.24s.17.38.23.47c1.43,2.25,3.56,4.24,5.89,5.52,0,.68-.53.81-1.11.71-1.48-.25-4.91-3.72-5.66-5.04-.24-.42-.62-1.18-.1-1.54.13-.09.62-.2.75-.12Z"/>
      <path class="cls-5" d="M52.86,47.24s.2.44.28.55c1.46,2.23,3.51,4.17,5.84,5.44,0,.68-.53.81-1.11.71-1.48-.25-4.91-3.72-5.66-5.04-.24-.42-.62-1.18-.1-1.54.13-.09.62-.2.75-.12Z"/>
      <path class="cls-4" d="M20.02,7.48c.61-.41,1.06-.12,1.14.58.08.65.09,2.53,0,3.17-.08.57-.58.75-1.04.44l-.1-4.18Z"/>
      <path class="cls-4" d="M21.22,28.16c.41-.09.64.05.77.43.16.45.17,2.78.1,3.32-.01.11-.08.32-.15.4-.23.27-.89.27-.95-.15-.11-.79.02-1.97,0-2.82,0-.36-.28-1.06.22-1.18Z"/>
      <path class="cls-3" d="M35.29,28.28c.06.07.15.31.18.41.15.56.16,2.55.08,3.15s-.53.73-1.04.5l-.18-3.97c.21-.26.73-.34.96-.09Z"/>
      <path class="cls-3" d="M81.49,7.29c1.3-.2,1.41,1.47,0,1.33-.34-.03-.82-.15-.76-.56s.37-.7.77-.77Z"/>
      <path class="cls-2" d="M67.5,29.18c-.04-.06.04-.35.07-.44.37-1.01,2.08-.64,1.65.37-.22.52-1.33.33-1.72.07Z"/>
    </g>
  </g>
</svg>