<?xml version="1.0" encoding="UTF-8"?>
<svg id="Layer_2" data-name="Layer 2" xmlns="http://www.w3.org/2000/svg" viewBox="0 0 108.58 45.23">
  <defs>
    <style>
      .cls-1 {
        fill: #97332b;
      }

      .cls-2 {
        fill: #fbf8f6;
      }

      .cls-3 {
        fill: #fdfbf9;
      }

      .cls-4 {
        fill: #fdfbfa;
      }

      .cls-5 {
        fill: #fffefe;
      }

      .cls-6 {
        fill: #97322b;
      }

      .cls-7 {
        fill: #fbf6f4;
      }

      .cls-8 {
        fill: #fbf7f5;
      }

      .cls-9 {
        fill: #97342c;
      }
    </style>
  </defs>
  <g id="Layer_1-2" data-name="Layer 1">
    <g>
      <path class="cls-5" d="M108.58,0v45.23H0V0h108.58ZM91.76,5.13c2.12-.45,1.78-5.04-.54-4.65-1.54.26-1.91,3.44-.56,4.21.04.17-.64.4-.67.57.04,2.22-.08,4.45.07,6.66.13,2.07,2.7,2.86,3.26.55.06-.23.18-1.16.11-1.33-.05-.13-.22-.26-.3-.48-.11-.31-.17-.82-.19-1.15-.08-1.29.1-2.62-.05-3.91-.61.35-1.18.45-1.13-.46ZM87.3,8.95c1.38-.48,2.03-1.88,1.91-3.29s-1.31-2.26-2.69-1.71c-.31,1.27-.59,2.59-1.48,3.59-.99-.29-.06-1.15.13-1.64.29-.76.46-3.16.21-3.91-.3-.88-1.29-1.09-2.11-.89-.23.06-.85.26-.88.51l-.05,10.66c.12,1.31,1.19,1.96,2.42,1.43.18-.08.7-.43.68-.64-.15-.43-.31-.87-.39-1.32-.04-.23-.19-1.08-.07-1.23l.67-.39c-.02,1.09.43,3.57,1.79,3.73,2.07.24,2.16-2.58,1.63-3.95-.64-.19-1.32-.44-1.76-.97ZM27.19,1.29c-.74-.11-1.53-.19-2.27.01l-1.1,3.46c-.08.02-.09-.02-.13-.05-.41-.28-.52-.77-1.17-1.01-1.64-.61-2.8.87-2.95,2.35-.67.08-.71-.4-.58-.92s.63-1-.05-1.31c-.44-.2-1.08-.04-1.56-.1-.41.9-.49,1.95-.28,2.91.06.28.27.62.3.84.2,1.63-.23,3.61-.05,5.22s2.51,1.53,3.46.67l.05-4.48c-.03-.12-.53-.17-.6-.43-.05-.16-.02-.53.14-.61.86.27,1.95.44,2.74-.11l.07-1.09c.46-.34.72-.09.77.43.16,1.91-.89,6.2,1.71,6.83,1.77.43,2.92-.78,2.9-2.49l-.11-.97c-.04-.14-.31-.07-.46-.11-.27-.07-.47-.33-.56-.58-.03-.08-.12-.4-.12-.45v-1.99h1.66c-.39-1.17-.31-2.41.05-3.57h-1.86V1.29ZM7.97,7.82c-.58,0-1.15,0-1.72-.07-.35-.04-1.1-.16-1.41-.3-.27-.12-.34-.77-.18-1.01.56-.84,2.74-.32,3.46-1.41.51-.77.25-2.46-.12-3.28-.15-.34-.19-.33-.57-.31-.93.04-1.87.28-2.79.31-1.14.05-2.3-.31-3.43.14-.43.17-.5.33-.58.77-.06.33-.1.8-.11,1.13-.16,3.43.32,6.94.57,10.35.07.89-.03,2.43.34,3.18.18.35.69.84,1.11.76.18-.03,1.2-.71,1.37-.86.25-.21.67-.63.88-.88.12-.15.47-.62.52-.78.06-.18-.18-1.39-.23-1.69-.03-.21-.05-.44-.06-.66-.03-.12-.51-.07-.64-.1-.39-.09-.38-.75-.13-.96.14-.12,1.55-.41,1.84-.47.66-.12,1.33-.18,1.98-.31.05-.08.2-.71.2-.82,0-.19-.09-.48-.1-.67-.03-.45,0-.91,0-1.34,0-.09-.18-.73-.21-.75ZM62.6,5.75l.02,1.35c1.16,1.45,3.21.94,3.4-.98.39-3.86-4.16-5.7-6.62-2.79-1.77,2.1-1.84,6.53-.46,8.84,1.5,2.51,4.76,2.59,6.59.4.55-.65.54-.89.43-1.73-.04-.33-.43-2.05-.7-2.15-.43-.13-2.49.5-2.6.86-.09.29.16.86-.21.98-.41.13-.5-.34-.56-.64-.14-.77-.08-1.74-.06-2.52.01-.57-.19-1.97.77-1.62ZM12.31,3.38c-5.42.37-5.03,12.28,1.15,10.67,4.31-1.12,3.96-11.02-1.15-10.67ZM52.66,10.71c-.59.31-1.15.62-1.84.67-.58.05-2-.12-2.3-.7-.1-.2-.09-.67.18-.69.06,0,.75.43,1.01.49,4.34,1.08,4.49-5.91.93-6.88-5.36-1.47-6.46,8.82-1.95,10.18.86.26,2.05.2,2.89-.14.38-.15,1.19-.66,1.24-1.08.07-.59-.04-1.26-.16-1.84ZM41.72,7.42c.24.24.19,1.01.17,1.35-.06,1.29-.5,3.14.26,4.3.83,1.27,2.48.95,3.01-.41.12-.3.34-1.38.22-1.64-.03-.06-.13-.11-.17-.19-.81-1.48.16-3.95-.66-5.81s-3.1-2.03-4.29-.46c-.17.22-.24.63-.52.62-.35-.01-.43-.39-.37-.68.03-.14.26-.45.21-.52-.47-.43-1.12-.2-1.71-.26-.38.89-.46,2.04-.23,2.97.06.25.23.56.26.78.19,1.52-.17,3.43,0,4.97.18,1.65,2.42,1.88,3.31.66-.07-.4-.2-.78-.24-1.19-.11-.92.06-1.78.1-2.68.02-.51-.14-1.26-.05-1.71.05-.27.52-.3.71-.11ZM35,3.58c-.51.01-1.15.19-1.54.54.04,1.67-.12,3.34-.06,5.01.01.3.22.64-.08.79-.48.25-.64-.2-.69-.59-.13-1.16.06-2.4.05-3.57,0-.97-.35-1.91-1.43-2.04-.29-.03-1.39-.06-1.65,0-.13.03-.16.19-.2.31-.26.72-.3,1.78-.16,2.54.06.31.26.69.29.95s-.05.53-.06.78c-.03,1.8-.21,4.83,1.94,5.51.37.12,1.77.19,1.88-.3.04-.2-.22-.71.16-.87.46-.19.45.29.65.59.63.95,1.96.87,2.55-.08.29-.46.49-1.42.42-1.96-.03-.23-.2-.34-.29-.54-.38-.84-.19-2.08-.18-2.97,0-1.14,0-2.28,0-3.42-.3-.5-1.06-.7-1.61-.69ZM69.74,3.79c-4.6.49-4.35,11.7,1.36,10.21,3.88-1.02,3.7-10.75-1.36-10.21ZM77.66,3.79c-4.72.48-4.28,11.74,1.29,10.14,3.87-1.11,3.52-10.63-1.29-10.14ZM97.18,3.84c-3.88.3-4.23,7.67-1.46,9.55,1.16.79,3.16.73,4.24-.2.31-.27.41-.37.44-.8.02-.24-.06-1.3-.18-1.47-.05-.07-.06-.05-.13-.03-.16.05-.5.32-.74.4-.69.25-1.53.28-2.22.03-.43-.15-.94-.45-.8-.98.13-.51.46-.03.71.09,1.31.66,2.99.05,3.44-1.38.72-2.27-.57-5.42-3.3-5.21ZM104.86,7.39c-.37-1.11,1.11-.85,1.75-.69.38.09.71.28,1.09.37.29-.55.68-2.14.21-2.59-.31-.29-1.51-.52-1.96-.58-1.39-.19-2.84-.04-3.68,1.21-1.11,1.65-.65,5.31,1.74,5.54.11.01.23-.07.34-.03.29.09.08,1.05-.46,1.08-.82.05-1.72-.81-2.05-1.5-.24-.14-.63.81-.68.99-.64,2.1-.24,4.39,1.69,5.64.62.4,1.32.69,1.98.19,1.06-.8,2.59-4.85,2.81-6.2.13-.78.31-1.97-.29-2.57-.72-.72-1.51-.78-2.48-.86ZM11.48,18.18c-2.51.1-8.06.75-9.69,2.84-1.97,2.5,2.48,3.37,4.09,3.51.32.03,1.86.12,2.02,0,.1-.08.34-.47.51-.63,1.18-1.09,3.56-1.56,5.13-1.6.57-.02,2.36-.03,1.65.92-1.61,0-3.32-.06-4.78.71-1.8.94-1.43,2.48.28,3.24,1.4.63,3,.65,4.52.61.27,0,.6-.19.73.2.2.63-.66.7-1.09.73-1.99.14-5.29-.28-6.63-1.92-.13-.16-.45-.77-.53-.82-.29-.15-.68-.02-.97,0-1.3.03-2.56.11-3.77.63-2.65,1.13-2.33,3.22-.02,4.5,4.17,2.31,12.79,2.26,17.39,1.32,1.83-.37,5.42-1.36,5.95-3.42.68-2.61-3-3.42-4.89-3.41-.3-.08-.4-.46-.19-.69.41-.46,1.87-.05,2.41-.02.38.02.77-.25,1.08-.47,1.9-1.37.75-3.2-.83-4.17-3.2-1.97-8.67-2.21-12.35-2.06ZM39.71,18.18c-4.16.15-11.56,1.68-11.95,6.89-.57,7.53,10.19,8.25,15.46,7.84,3.92-.3,9.98-1.86,10.33-6.65.5-6.82-8.79-8.26-13.84-8.08ZM66.74,18.18c-4.16.15-11.56,1.68-11.95,6.89-.57,7.53,10.19,8.25,15.46,7.84,3.92-.3,9.98-1.86,10.33-6.65.5-6.82-8.79-8.26-13.84-8.08ZM93.71,18.18c-4.16.15-11.56,1.68-11.95,6.89-.57,7.53,10.19,8.25,15.46,7.84,3.92-.3,9.98-1.86,10.33-6.65.5-6.82-8.8-8.26-13.84-8.08Z"/>
      <path class="cls-6" d="M39.71,18.18c5.04-.18,14.34,1.26,13.84,8.08-.35,4.79-6.41,6.35-10.33,6.65-5.27.41-16.02-.3-15.46-7.84.39-5.21,7.79-6.75,11.95-6.89ZM45.46,28.15c-.25-.03-.48-.15-.71-.25-2.36-1.04-4.58-2.42-6.41-4.25-.35-.35-.3-.67-.92-.56-.92.16-.52.96-.12,1.44,1.12,1.32,5.3,4.09,6.99,4.24.53.05,1.08,0,1.16-.62Z"/>
      <path class="cls-6" d="M66.74,18.18c5.04-.18,14.34,1.26,13.84,8.08-.35,4.79-6.41,6.35-10.33,6.65-5.27.41-16.02-.3-15.46-7.84.39-5.21,7.79-6.75,11.95-6.89ZM72.49,28.15c-.25-.03-.48-.15-.71-.25-2.36-1.04-4.58-2.42-6.41-4.25-.35-.35-.3-.67-.92-.56-.92.16-.52.96-.12,1.44,1.12,1.32,5.3,4.09,6.99,4.24.53.05,1.08,0,1.16-.62Z"/>
      <path class="cls-6" d="M93.71,18.18c5.04-.18,14.34,1.26,13.84,8.08-.35,4.79-6.41,6.35-10.33,6.65-5.27.41-16.02-.3-15.46-7.84.39-5.21,7.79-6.75,11.95-6.89ZM99.47,28.15c-.25-.03-.48-.15-.71-.25-2.36-1.04-4.58-2.42-6.41-4.25-.35-.35-.3-.67-.92-.56-.92.16-.52.96-.12,1.44,1.12,1.32,5.3,4.09,6.99,4.24.53.05,1.08,0,1.16-.62Z"/>
      <path class="cls-1" d="M11.48,18.18c3.68-.14,9.16.1,12.35,2.06,1.58.97,2.73,2.8.83,4.17-.31.22-.7.49-1.08.47-.54-.03-2-.43-2.41.02-.21.23-.11.6.19.69,1.89-.01,5.57.8,4.89,3.41-.53,2.06-4.13,3.04-5.95,3.42-4.6.94-13.22.99-17.39-1.32-2.32-1.28-2.63-3.37.02-4.5,1.22-.52,2.47-.59,3.77-.63.29,0,.68-.14.97,0,.08.04.4.66.53.82,1.35,1.63,4.65,2.05,6.63,1.92.43-.03,1.28-.1,1.09-.73-.12-.4-.46-.21-.73-.2-1.51.04-3.11.01-4.52-.61-1.71-.76-2.08-2.3-.28-3.24,1.46-.76,3.18-.71,4.78-.71.71-.96-1.08-.94-1.65-.92-1.57.04-3.95.51-5.13,1.6-.17.16-.41.55-.51.63-.16.12-1.7.03-2.02,0-1.61-.15-6.05-1.02-4.09-3.51,1.64-2.08,7.18-2.74,9.69-2.84Z"/>
      <path class="cls-1" d="M27.19,1.29v2.43h1.86c-.36,1.16-.44,2.4-.05,3.57h-1.66v1.99c0,.06.09.37.12.45.09.25.29.51.56.58.15.04.41-.03.46.11l.11.97c.02,1.71-1.13,2.92-2.9,2.49-2.6-.64-1.55-4.93-1.71-6.83-.04-.52-.31-.77-.77-.43l-.07,1.09c-.79.55-1.88.38-2.74.11-.16.08-.19.46-.14.61.08.26.57.31.6.43l-.05,4.48c-.95.86-3.28.93-3.46-.67s.25-3.6.05-5.22c-.03-.22-.23-.56-.3-.84-.21-.96-.13-2.01.28-2.91.48.05,1.12-.11,1.56.1.68.31.18.79.05,1.31s-.09,1,.58.92c.16-1.48,1.31-2.96,2.95-2.35.65.24.75.73,1.17,1.01.04.03.05.07.13.05l1.1-3.46c.74-.21,1.52-.13,2.27-.01Z"/>
      <path class="cls-1" d="M7.97,7.82s.21.66.21.75c.01.43-.02.89,0,1.34.01.2.1.49.1.67,0,.11-.15.75-.2.82-.66.13-1.33.18-1.98.31-.28.05-1.7.35-1.84.47-.25.21-.27.87.13.96.12.03.61-.03.64.1,0,.22.03.44.06.66.04.3.29,1.51.23,1.69-.05.16-.4.63-.52.78-.21.25-.63.67-.88.88-.18.15-1.2.82-1.37.86-.42.08-.93-.41-1.11-.76-.38-.75-.28-2.29-.34-3.18-.26-3.41-.74-6.92-.57-10.35.02-.33.06-.8.11-1.13.08-.43.15-.6.58-.77,1.13-.45,2.29-.1,3.43-.14.93-.04,1.87-.27,2.79-.31.38-.02.41-.03.57.31.37.82.64,2.5.12,3.28-.72,1.09-2.9.57-3.46,1.41-.16.24-.09.89.18,1.01.31.14,1.05.26,1.41.3.57.07,1.14.06,1.72.07Z"/>
      <path class="cls-1" d="M62.6,5.75c-.96-.34-.75,1.05-.77,1.62-.02.78-.08,1.75.06,2.52.05.3.14.77.56.64.37-.12.13-.69.21-.98.11-.36,2.17-.99,2.6-.86.27.09.66,1.82.7,2.15.11.84.12,1.07-.43,1.73-1.84,2.19-5.09,2.11-6.59-.4-1.38-2.31-1.32-6.74.46-8.84,2.46-2.92,7.01-1.07,6.62,2.79-.19,1.92-2.24,2.43-3.4.98l-.02-1.35Z"/>
      <path class="cls-1" d="M104.86,7.39c.97.08,1.76.14,2.48.86.6.6.42,1.79.29,2.57-.22,1.35-1.75,5.4-2.81,6.2-.66.49-1.36.2-1.98-.19-1.93-1.25-2.33-3.54-1.69-5.64.05-.18.45-1.13.68-.99.33.69,1.23,1.55,2.05,1.5.54-.04.75-.99.46-1.08-.11-.04-.23.04-.34.03-2.39-.23-2.84-3.89-1.74-5.54.84-1.25,2.28-1.4,3.68-1.21.45.06,1.65.28,1.96.58.48.45.09,2.04-.21,2.59-.38-.08-.71-.27-1.09-.37-.64-.16-2.13-.42-1.75.69Z"/>
      <path class="cls-1" d="M87.3,8.95c.44.52,1.12.78,1.76.97.52,1.37.44,4.19-1.63,3.95-1.35-.15-1.81-2.64-1.79-3.73l-.67.39c-.12.14.02.99.07,1.23.08.45.24.89.39,1.32.02.21-.5.56-.68.64-1.23.53-2.3-.12-2.42-1.43l.05-10.66c.03-.26.65-.46.88-.51.83-.2,1.81,0,2.11.89.25.75.09,3.15-.21,3.91-.19.49-1.12,1.34-.13,1.64.89-1,1.17-2.33,1.48-3.59,1.38-.55,2.57.26,2.69,1.71s-.53,2.81-1.91,3.29Z"/>
      <path class="cls-1" d="M12.31,3.38c5.11-.35,5.46,9.55,1.15,10.67-6.18,1.61-6.57-10.3-1.15-10.67ZM12.36,6.84c-.45.09-.25.51-.24.79.02.83-.11,1.98,0,2.75.05.34.54.38.7.12.06-.09.11-.38.13-.5.06-.6.05-1.67,0-2.27-.02-.34-.09-1-.59-.89Z"/>
      <path class="cls-1" d="M35,3.58c.55-.01,1.31.19,1.61.69,0,1.14.01,2.28,0,3.42,0,.89-.2,2.13.18,2.97.09.2.26.31.29.54.07.54-.14,1.49-.42,1.96-.59.95-1.92,1.03-2.55.08-.2-.3-.19-.78-.65-.59-.39.16-.12.67-.16.87-.11.49-1.51.41-1.88.3-2.15-.68-1.97-3.72-1.94-5.51,0-.25.09-.5.06-.78s-.23-.64-.29-.95c-.14-.75-.1-1.81.16-2.54.04-.12.07-.29.2-.31.26-.05,1.36-.03,1.65,0,1.08.12,1.42,1.07,1.43,2.04.01,1.16-.17,2.4-.05,3.57.04.39.21.84.69.59.3-.16.09-.5.08-.79-.06-1.67.1-3.34.06-5.01.39-.35,1.02-.53,1.54-.54Z"/>
      <path class="cls-1" d="M41.72,7.42c-.19-.19-.65-.15-.71.11-.09.44.08,1.19.05,1.71-.04.9-.21,1.76-.1,2.68.05.4.18.79.24,1.19-.88,1.22-3.13.99-3.31-.66-.17-1.54.19-3.45,0-4.97-.03-.22-.2-.53-.26-.78-.23-.94-.15-2.09.23-2.97.58.06,1.23-.17,1.71.26.04.07-.19.38-.21.52-.06.29.02.67.37.68.28.01.35-.4.52-.62,1.19-1.57,3.5-1.35,4.29.46s-.16,4.33.66,5.81c.04.08.15.13.17.19.12.26-.11,1.34-.22,1.64-.53,1.35-2.19,1.68-3.01.41-.75-1.16-.32-3.01-.26-4.3.02-.34.07-1.11-.17-1.35Z"/>
      <path class="cls-1" d="M69.74,3.79c5.05-.54,5.24,9.19,1.36,10.21-5.7,1.5-5.95-9.71-1.36-10.21ZM69.87,10.65c.24.25.66.05.71-.27-.05-.85.08-1.8,0-2.64-.02-.25-.09-.62-.39-.65-.61-.06-.39.48-.39.8.02.8-.07,1.71,0,2.49,0,.09,0,.2.07.27Z"/>
      <path class="cls-1" d="M52.66,10.71c.11.58.23,1.25.16,1.84-.05.42-.87.93-1.24,1.08-.83.34-2.02.4-2.89.14-4.51-1.36-3.41-11.65,1.95-10.18,3.55.97,3.41,7.97-.93,6.88-.26-.07-.95-.5-1.01-.49-.27.02-.28.5-.18.69.3.58,1.71.75,2.3.7.69-.06,1.25-.36,1.84-.67ZM50.26,7c-.66-.71-1.72.82-.57.96.61.07.93-.58.57-.96Z"/>
      <path class="cls-1" d="M77.66,3.79c4.81-.49,5.16,9.03,1.29,10.14-5.57,1.6-6.02-9.66-1.29-10.14ZM78.23,7.16c-.09-.08-.3-.09-.41-.06-.35.1-.14.83-.14,1.1.02.76-.02,1.52,0,2.28.07.36.67.34.72-.15.07-.58.02-1.48,0-2.07-.01-.27.05-.91-.17-1.1Z"/>
      <path class="cls-1" d="M97.18,3.84c2.73-.21,4.02,2.94,3.3,5.21-.45,1.42-2.13,2.04-3.44,1.38-.25-.13-.58-.6-.71-.09-.14.54.37.83.8.98.69.24,1.54.22,2.22-.03.24-.09.57-.36.74-.4.07-.02.08-.04.13.03.12.17.2,1.23.18,1.47-.03.43-.13.53-.44.8-1.08.92-3.07.99-4.24.2-2.78-1.88-2.42-9.25,1.46-9.55ZM97.44,7.1c-.36.06-.49.45-.5.78.18.33.86.43,1.07.11.29-.44-.01-.99-.58-.89Z"/>
      <path class="cls-9" d="M91.76,5.13c-.05.91.52.82,1.13.46.15,1.28-.03,2.62.05,3.91.02.33.08.84.19,1.15.08.22.24.35.3.48.07.17-.05,1.1-.11,1.33-.56,2.31-3.14,1.52-3.26-.55-.15-2.21-.03-4.44-.07-6.66.03-.17.71-.4.67-.57-1.36-.77-.98-3.94.56-4.21,2.31-.39,2.65,4.2.54,4.65Z"/>
      <path class="cls-3" d="M45.46,28.15c-.08.63-.64.67-1.16.62-1.69-.15-5.88-2.92-6.99-4.24-.4-.48-.8-1.28.12-1.44.61-.11.57.21.92.56,1.83,1.83,4.05,3.21,6.41,4.25.23.1.46.22.71.25Z"/>
      <path class="cls-3" d="M72.49,28.15c-.08.63-.64.67-1.16.62-1.69-.15-5.88-2.92-6.99-4.24-.4-.48-.8-1.28.12-1.44.61-.11.57.21.92.56,1.83,1.83,4.05,3.21,6.41,4.25.23.1.46.22.71.25Z"/>
      <path class="cls-3" d="M99.47,28.15c-.08.63-.64.67-1.16.62-1.69-.15-5.88-2.92-6.99-4.24-.4-.48-.8-1.28.12-1.44.61-.11.57.21.92.56,1.83,1.83,4.05,3.21,6.41,4.25.23.1.46.22.71.25Z"/>
      <path class="cls-8" d="M12.36,6.84c.49-.1.56.55.59.89.04.61.05,1.68,0,2.27-.01.12-.07.4-.13.5-.16.25-.65.21-.7-.12-.1-.77.02-1.92,0-2.75,0-.28-.2-.7.24-.79Z"/>
      <path class="cls-2" d="M69.87,10.65c-.06-.06-.06-.18-.07-.27-.07-.78.02-1.69,0-2.49,0-.33-.22-.86.39-.8.3.03.36.4.39.65.08.84-.05,1.78,0,2.64-.05.33-.47.52-.71.27Z"/>
      <path class="cls-8" d="M50.26,7c.36.39.04,1.04-.57.96-1.15-.14-.09-1.68.57-.96Z"/>
      <path class="cls-4" d="M78.23,7.16c.22.18.16.83.17,1.1.02.59.07,1.49,0,2.07-.06.49-.66.51-.72.15-.02-.76.02-1.52,0-2.28,0-.27-.21-1,.14-1.1.11-.03.32-.02.41.06Z"/>
      <path class="cls-7" d="M97.44,7.1c.57-.1.87.44.58.89-.21.32-.89.22-1.07-.11.01-.32.14-.72.5-.78Z"/>
    </g>
  </g>
</svg>